<?xml version="1.0" standalone="no"?>
<!DOCTYPE svg PUBLIC "-//W3C//DTD SVG 20010904//EN"
 "http://www.w3.org/TR/2001/REC-SVG-20010904/DTD/svg10.dtd">
<svg version="1.0" xmlns="http://www.w3.org/2000/svg"
 width="500.000000pt" height="500.000000pt" viewBox="0 0 500.000000 500.000000"
 preserveAspectRatio="xMidYMid meet">
<metadata>
Created by potrace 1.14, written by Peter Selinger 2001-2017
</metadata>
<g transform="translate(0.000000,500.000000) scale(0.100000,-0.100000)"
fill="#000000" stroke="none">
<path d="M2983 3863 c-1441 -1895 -1763 -2319 -1763 -2324 0 -10 102 -75 179
-113 321 -162 731 -183 1096 -56 435 151 787 466 1002 893 259 518 239 1115
-53 1553 -55 84 -192 237 -245 275 l-28 20 -188 -248z"/>
<path d="M1337 3871 c-247 -124 -401 -351 -424 -623 -7 -77 5 -105 38 -87 14
7 19 21 19 50 0 62 29 187 60 261 62 149 169 259 333 344 74 38 88 49 85 67
-5 33 -26 31 -111 -12z"/>
<path d="M1400 3638 c-123 -61 -212 -178 -246 -324 -21 -91 -16 -129 15 -129
23 0 26 6 38 80 25 152 101 258 232 324 61 31 72 46 49 69 -16 16 -16 16 -88
-20z"/>
<path d="M1488 3435 c-75 -40 -127 -123 -128 -208 0 -25 5 -40 15 -43 22 -9
45 14 45 45 1 47 36 108 82 140 69 49 69 50 58 71 -13 25 -14 25 -72 -5z"/>
<path d="M1642 3307 c-70 -22 -123 -121 -103 -192 25 -90 82 -127 193 -123
l73 3 142 -112 c78 -62 144 -113 146 -113 10 0 67 91 62 100 -3 5 -65 55 -138
111 -73 55 -136 108 -141 117 -6 10 -13 40 -17 69 -9 65 -40 110 -93 134 -45
21 -75 22 -124 6z"/>
<path d="M3460 2099 c-64 -104 -190 -268 -254 -328 -20 -19 -36 -39 -36 -43 0
-5 24 -20 53 -33 104 -49 248 -24 329 57 83 83 111 203 74 314 -16 48 -77 134
-96 134 -4 0 -36 -46 -70 -101z"/>
<path d="M3652 1815 c-19 -35 -52 -81 -74 -101 -87 -78 -214 -110 -318 -79
-30 9 -63 17 -74 18 -15 2 -46 -60 -172 -343 -102 -228 -152 -351 -148 -365 3
-11 15 -28 26 -38 19 -16 62 -17 587 -17 l568 0 21 23 c12 13 22 32 22 42 0
15 -397 925 -404 925 0 0 -16 -29 -34 -65z"/>
</g>
</svg>
